<?xml version="1.0" encoding="UTF-8" standalone="no"?><svg width="44" height="44" viewBox="0 0 44 44" fill="none" xmlns="http://www.w3.org/2000/svg">
<rect width="44" height="44" fill="white"/>
<path fill-rule="evenodd" clip-rule="evenodd" d="M11.849 15.5801C13.7232 14.0018 17.5433 13.8471 19.2763 14.0946L17.5123 21.1506C17.4834 21.254 17.4522 21.3976 17.4138 21.575L17.4138 21.575C17.1644 22.7253 16.6079 25.292 14.3557 27.4638C11.9068 29.8252 7.88777 29.8467 6 29.5063L8.97092 19.6651C9.06376 19.2319 10.085 17.0656 11.849 15.5801ZM22.0614 15.5804C23.9356 14.0021 27.9414 13.8731 29.6744 14.1207L27.7248 21.1509C27.6958 21.2542 27.6647 21.3979 27.6262 21.5753L27.6262 21.5753C27.3768 22.7256 26.8204 25.2923 24.5681 27.4641C22.1192 29.8255 18.1002 29.847 16.2124 29.5066L19.1834 19.6654C19.2762 19.2321 20.2975 17.0659 22.0614 15.5804ZM31.101 14.0816C32.4073 14.0693 35.0703 14.0441 36.7897 15.5133C38.5414 17.0101 37.9038 20.1554 37.811 20.5938L35.2115 29.5994H31.6834C31.1264 29.5994 29.8077 29.3431 28.9911 28.2996C27.3199 26.1642 27.6913 24.7716 27.9699 23.8432L30.807 14.0836C30.895 14.0836 30.9934 14.0826 31.101 14.0816Z" fill="black"/>
</svg>
